# xmcd CD database file
#
# Track frame offsets:
#	150
#	12337
#	21760
#	32212
#	44552
#	54900
#	68090
#	76522
#	89020
#	103475
#	111890
#	121092
#	137740
#	149125
#	162022
#	173705
#	189155
#	203045
#	214122
#	226400
#	240902
#	254242
#
# Disc length: 3577 seconds
#
# Revision: 0
# Processed by: cddbd v1.4PL0 Copyright (c) Steve Scherf et al.
# Submitted via: CDex 1.50Beta5
#
DISCID=320df716
DTITLE=Dolly Parton - Jolene - My Tennessee Mountain Home
DYEAR=1900
DGENRE=Country
TTITLE0=Jolene
TTITLE1=When Someone Wants To Leave
TTITLE2=River Of Happiness
TTITLE3=Early Morning Breeze
TTITLE4=Highlight Of My Life
TTITLE5=I Will Always Love You
TTITLE6=Randy
TTITLE7=Living On Memories Of You
TTITLE8=Lonely Comin' Down (Porter Wagoner)
TTITLE9=It Must Be You (Blaise Josti)
TTITLE10=Letter
TTITLE11=I Remember
TTITLE12=Old Black Kettle
TTITLE13=Daddy's Working Boots
TTITLE14=Dr. Robert J. Thomas
TTITLE15=In The Good Old Days (When Times Were Bad)
TTITLE16=My Tennessee Mountain Home
TTITLE17=Wrong Direction Home
TTITLE18=Back Home
TTITLE19=The Better Part Of Life
TTITLE20=Down On Music Row
TTITLE21=Love, Your So Beautiful Tonight (Porter Wagoner)
EXTD=
EXTT0=
EXTT1=
EXTT2=
EXTT3=
EXTT4=
EXTT5=
EXTT6=
EXTT7=
EXTT8=
EXTT9=
EXTT10=
EXTT11=
EXTT12=
EXTT13=
EXTT14=
EXTT15=
EXTT16=
EXTT17=
EXTT18=
EXTT19=
EXTT20=
EXTT21=
PLAYORDER=
